<mxfile host="Electron" agent="Mozilla/5.0 (Windows NT 10.0; Win64; x64) AppleWebKit/537.36 (KHTML, like Gecko) draw.io/26.2.2 Chrome/134.0.6998.178 Electron/35.1.2 Safari/537.36" version="26.2.2">
  <diagram name="Page-1" id="irjEw7Q2_Inozvilu6pL">
    <mxGraphModel dx="1857" dy="611" grid="1" gridSize="10" guides="1" tooltips="1" connect="1" arrows="1" fold="1" page="1" pageScale="1" pageWidth="827" pageHeight="1169" math="0" shadow="0">
      <root>
        <mxCell id="0" />
        <mxCell id="1" parent="0" />
        <mxCell id="i1j0reB7DUbqS-x-DOS3-75" style="edgeStyle=orthogonalEdgeStyle;rounded=0;orthogonalLoop=1;jettySize=auto;html=1;" parent="1" source="i1j0reB7DUbqS-x-DOS3-70" target="i1j0reB7DUbqS-x-DOS3-19" edge="1">
          <mxGeometry relative="1" as="geometry">
            <mxPoint x="210" y="610" as="targetPoint" />
          </mxGeometry>
        </mxCell>
        <mxCell id="i1j0reB7DUbqS-x-DOS3-76" value="1*" style="edgeLabel;html=1;align=center;verticalAlign=middle;resizable=0;points=[];" parent="i1j0reB7DUbqS-x-DOS3-75" vertex="1" connectable="0">
          <mxGeometry x="0.6905" y="3" relative="1" as="geometry">
            <mxPoint as="offset" />
          </mxGeometry>
        </mxCell>
        <mxCell id="i1j0reB7DUbqS-x-DOS3-77" value="1*" style="edgeLabel;html=1;align=center;verticalAlign=middle;resizable=0;points=[];" parent="i1j0reB7DUbqS-x-DOS3-75" vertex="1" connectable="0">
          <mxGeometry x="-0.7135" y="1" relative="1" as="geometry">
            <mxPoint as="offset" />
          </mxGeometry>
        </mxCell>
        <mxCell id="i1j0reB7DUbqS-x-DOS3-79" value="fabrique" style="edgeLabel;html=1;align=center;verticalAlign=middle;resizable=0;points=[];" parent="i1j0reB7DUbqS-x-DOS3-75" vertex="1" connectable="0">
          <mxGeometry x="0.0419" y="1" relative="1" as="geometry">
            <mxPoint as="offset" />
          </mxGeometry>
        </mxCell>
        <mxCell id="i1j0reB7DUbqS-x-DOS3-19" value="&lt;p style=&quot;margin:0px;margin-top:4px;text-align:center;&quot;&gt;&lt;b&gt;Produit&lt;/b&gt;&lt;/p&gt;&lt;hr size=&quot;1&quot; style=&quot;border-style:solid;&quot;&gt;&lt;p style=&quot;margin:0px;margin-left:4px;&quot;&gt;- codeProduit : String&lt;/p&gt;&lt;p style=&quot;margin:0px;margin-left:4px;&quot;&gt;- dProduit : String&lt;/p&gt;&lt;hr size=&quot;1&quot; style=&quot;border-style:solid;&quot;&gt;&lt;p style=&quot;margin:0px;margin-left:4px;&quot;&gt;+&amp;nbsp;afficheProduit ()&lt;/p&gt;&lt;p style=&quot;margin:0px;margin-left:4px;&quot;&gt;+&amp;nbsp;modifierProduit ()&lt;/p&gt;&lt;p style=&quot;margin:0px;margin-left:4px;&quot;&gt;+ supprimerProduit ()&lt;/p&gt;" style="verticalAlign=top;align=left;overflow=fill;html=1;whiteSpace=wrap;" parent="1" vertex="1">
          <mxGeometry x="40" y="730" width="160" height="130" as="geometry" />
        </mxCell>
        <mxCell id="i1j0reB7DUbqS-x-DOS3-32" style="edgeStyle=orthogonalEdgeStyle;rounded=0;orthogonalLoop=1;jettySize=auto;html=1;exitX=1;exitY=0.5;exitDx=0;exitDy=0;entryX=0;entryY=0.5;entryDx=0;entryDy=0;" parent="1" source="i1j0reB7DUbqS-x-DOS3-21" target="i1j0reB7DUbqS-x-DOS3-22" edge="1">
          <mxGeometry relative="1" as="geometry" />
        </mxCell>
        <mxCell id="i1j0reB7DUbqS-x-DOS3-33" value="1" style="edgeLabel;html=1;align=center;verticalAlign=middle;resizable=0;points=[];" parent="i1j0reB7DUbqS-x-DOS3-32" vertex="1" connectable="0">
          <mxGeometry x="0.7826" y="3" relative="1" as="geometry">
            <mxPoint as="offset" />
          </mxGeometry>
        </mxCell>
        <mxCell id="i1j0reB7DUbqS-x-DOS3-34" value="*" style="edgeLabel;html=1;align=center;verticalAlign=middle;resizable=0;points=[];" parent="i1j0reB7DUbqS-x-DOS3-32" vertex="1" connectable="0">
          <mxGeometry x="-0.804" y="-2" relative="1" as="geometry">
            <mxPoint as="offset" />
          </mxGeometry>
        </mxCell>
        <mxCell id="i1j0reB7DUbqS-x-DOS3-21" value="&lt;p style=&quot;margin:0px;margin-top:4px;text-align:center;&quot;&gt;&lt;b&gt;Machine&lt;/b&gt;&lt;/p&gt;&lt;hr size=&quot;1&quot; style=&quot;border-style:solid;&quot;&gt;&lt;p style=&quot;margin:0px;margin-left:4px;&quot;&gt;- refMachine : String&lt;/p&gt;&lt;p style=&quot;margin:0px;margin-left:4px;&quot;&gt;- dmachine : String&lt;/p&gt;&lt;p style=&quot;margin:0px;margin-left:4px;&quot;&gt;- type : String&lt;/p&gt;&lt;p style=&quot;margin:0px;margin-left:4px;&quot;&gt;- cout : float&lt;/p&gt;&lt;p style=&quot;margin:0px;margin-left:4px;&quot;&gt;- x : float&lt;/p&gt;&lt;p style=&quot;margin:0px;margin-left:4px;&quot;&gt;- y : float&lt;/p&gt;&lt;hr size=&quot;1&quot; style=&quot;border-style:solid;&quot;&gt;&lt;p style=&quot;margin:0px;margin-left:4px;&quot;&gt;+ afficheMachine ()&lt;/p&gt;&lt;p style=&quot;margin:0px;margin-left:4px;&quot;&gt;+ modifierMachine ()&lt;/p&gt;&lt;p style=&quot;margin:0px;margin-left:4px;&quot;&gt;+ supprimerMachine ()&lt;/p&gt;&lt;p style=&quot;margin:0px;margin-left:4px;&quot;&gt;+ getCout ()&lt;/p&gt;&lt;p style=&quot;margin:0px;margin-left:4px;&quot;&gt;+ setTempsFonctionnment ()&lt;/p&gt;&lt;p style=&quot;margin:0px;margin-left:4px;&quot;&gt;+ getFiabilite&lt;/p&gt;" style="verticalAlign=top;align=left;overflow=fill;html=1;whiteSpace=wrap;" parent="1" vertex="1">
          <mxGeometry x="220" y="270" width="210" height="240" as="geometry" />
        </mxCell>
        <mxCell id="i1j0reB7DUbqS-x-DOS3-22" value="&lt;p style=&quot;margin:0px;margin-top:4px;text-align:center;&quot;&gt;&lt;b&gt;Poste&lt;/b&gt;&lt;/p&gt;&lt;hr size=&quot;1&quot; style=&quot;border-style:solid;&quot;&gt;&lt;p style=&quot;margin:0px;margin-left:4px;&quot;&gt;- refPoste : String&lt;/p&gt;&lt;p style=&quot;margin:0px;margin-left:4px;&quot;&gt;- dPoste : String&lt;/p&gt;&lt;p style=&quot;margin:0px;margin-left:4px;&quot;&gt;- machines : List&amp;lt;machine&amp;gt;&lt;/p&gt;&lt;hr size=&quot;1&quot; style=&quot;border-style:solid;&quot;&gt;&lt;p style=&quot;margin:0px;margin-left:4px;&quot;&gt;+ ajouteMachine ()&lt;/p&gt;&lt;p style=&quot;margin:0px;margin-left:4px;&quot;&gt;+ retireMachine ()&lt;/p&gt;&lt;p style=&quot;margin:0px;margin-left:4px;&quot;&gt;+ affichePoste ()&lt;/p&gt;&lt;p style=&quot;margin:0px;margin-left:4px;&quot;&gt;+ supprimerPoste ()&lt;/p&gt;&lt;p style=&quot;margin:0px;margin-left:4px;&quot;&gt;&lt;br&gt;&lt;/p&gt;" style="verticalAlign=top;align=left;overflow=fill;html=1;whiteSpace=wrap;" parent="1" vertex="1">
          <mxGeometry x="600" y="290" width="160" height="150" as="geometry" />
        </mxCell>
        <mxCell id="i1j0reB7DUbqS-x-DOS3-42" value="Atelier" style="swimlane;fontStyle=1;align=center;verticalAlign=top;childLayout=stackLayout;horizontal=1;startSize=26;horizontalStack=0;resizeParent=1;resizeParentMax=0;resizeLast=0;collapsible=1;marginBottom=0;whiteSpace=wrap;html=1;" parent="1" vertex="1">
          <mxGeometry x="690" y="470" width="160" height="190" as="geometry" />
        </mxCell>
        <mxCell id="i1j0reB7DUbqS-x-DOS3-43" value="&lt;div&gt;- postes : List&amp;lt;postes&amp;gt;&lt;/div&gt;- operateurs : List&amp;lt;operateur&amp;gt;" style="text;strokeColor=none;fillColor=none;align=left;verticalAlign=top;spacingLeft=4;spacingRight=4;overflow=hidden;rotatable=0;points=[[0,0.5],[1,0.5]];portConstraint=eastwest;whiteSpace=wrap;html=1;" parent="i1j0reB7DUbqS-x-DOS3-42" vertex="1">
          <mxGeometry y="26" width="160" height="64" as="geometry" />
        </mxCell>
        <mxCell id="i1j0reB7DUbqS-x-DOS3-44" value="" style="line;strokeWidth=1;fillColor=none;align=left;verticalAlign=middle;spacingTop=-1;spacingLeft=3;spacingRight=3;rotatable=0;labelPosition=right;points=[];portConstraint=eastwest;strokeColor=inherit;" parent="i1j0reB7DUbqS-x-DOS3-42" vertex="1">
          <mxGeometry y="90" width="160" height="8" as="geometry" />
        </mxCell>
        <mxCell id="i1j0reB7DUbqS-x-DOS3-45" value="+ ajouterPoste ()&lt;div&gt;+ retirerPoste ()&lt;/div&gt;&lt;div&gt;+ ajouterOperateur ()&lt;/div&gt;&lt;div&gt;+ retirerOperateur ()&lt;/div&gt;&lt;div&gt;+ afficherAtelier ()&lt;/div&gt;" style="text;strokeColor=none;fillColor=none;align=left;verticalAlign=top;spacingLeft=4;spacingRight=4;overflow=hidden;rotatable=0;points=[[0,0.5],[1,0.5]];portConstraint=eastwest;whiteSpace=wrap;html=1;" parent="i1j0reB7DUbqS-x-DOS3-42" vertex="1">
          <mxGeometry y="98" width="160" height="92" as="geometry" />
        </mxCell>
        <mxCell id="i1j0reB7DUbqS-x-DOS3-46" value="Equipement" style="swimlane;fontStyle=1;align=center;verticalAlign=top;childLayout=stackLayout;horizontal=1;startSize=26;horizontalStack=0;resizeParent=1;resizeParentMax=0;resizeLast=0;collapsible=1;marginBottom=0;whiteSpace=wrap;html=1;" parent="1" vertex="1">
          <mxGeometry x="-230" y="305" width="160" height="130" as="geometry" />
        </mxCell>
        <mxCell id="i1j0reB7DUbqS-x-DOS3-47" value="- refEquipement : String&lt;div&gt;- dEquipement : String&lt;/div&gt;" style="text;strokeColor=none;fillColor=none;align=left;verticalAlign=top;spacingLeft=4;spacingRight=4;overflow=hidden;rotatable=0;points=[[0,0.5],[1,0.5]];portConstraint=eastwest;whiteSpace=wrap;html=1;" parent="i1j0reB7DUbqS-x-DOS3-46" vertex="1">
          <mxGeometry y="26" width="160" height="52" as="geometry" />
        </mxCell>
        <mxCell id="i1j0reB7DUbqS-x-DOS3-48" value="" style="line;strokeWidth=1;fillColor=none;align=left;verticalAlign=middle;spacingTop=-1;spacingLeft=3;spacingRight=3;rotatable=0;labelPosition=right;points=[];portConstraint=eastwest;strokeColor=inherit;" parent="i1j0reB7DUbqS-x-DOS3-46" vertex="1">
          <mxGeometry y="78" width="160" height="8" as="geometry" />
        </mxCell>
        <mxCell id="yPJRYRBYpKl1Pogp3GRS-6" style="edgeStyle=orthogonalEdgeStyle;rounded=0;orthogonalLoop=1;jettySize=auto;html=1;endArrow=none;startFill=0;" edge="1" parent="i1j0reB7DUbqS-x-DOS3-46" source="i1j0reB7DUbqS-x-DOS3-49">
          <mxGeometry relative="1" as="geometry">
            <mxPoint x="290" y="95" as="targetPoint" />
          </mxGeometry>
        </mxCell>
        <mxCell id="i1j0reB7DUbqS-x-DOS3-49" value="+&amp;nbsp;getRefEquipement()&lt;div&gt;+&amp;nbsp;getDEquipement()&lt;/div&gt;" style="text;strokeColor=none;fillColor=none;align=left;verticalAlign=top;spacingLeft=4;spacingRight=4;overflow=hidden;rotatable=0;points=[[0,0.5],[1,0.5]];portConstraint=eastwest;whiteSpace=wrap;html=1;" parent="i1j0reB7DUbqS-x-DOS3-46" vertex="1">
          <mxGeometry y="86" width="160" height="44" as="geometry" />
        </mxCell>
        <mxCell id="yPJRYRBYpKl1Pogp3GRS-7" style="edgeStyle=orthogonalEdgeStyle;rounded=0;orthogonalLoop=1;jettySize=auto;html=1;entryX=0.701;entryY=-0.029;entryDx=0;entryDy=0;entryPerimeter=0;" edge="1" parent="1" source="i1j0reB7DUbqS-x-DOS3-53" target="i1j0reB7DUbqS-x-DOS3-70">
          <mxGeometry relative="1" as="geometry">
            <mxPoint x="140" y="430" as="targetPoint" />
            <Array as="points">
              <mxPoint x="60" y="380" />
              <mxPoint x="61" y="380" />
              <mxPoint x="61" y="420" />
              <mxPoint x="140" y="420" />
            </Array>
          </mxGeometry>
        </mxCell>
        <mxCell id="i1j0reB7DUbqS-x-DOS3-53" value="Operation" style="swimlane;fontStyle=1;align=center;verticalAlign=top;childLayout=stackLayout;horizontal=1;startSize=26;horizontalStack=0;resizeParent=1;resizeParentMax=0;resizeLast=0;collapsible=1;marginBottom=0;whiteSpace=wrap;html=1;" parent="1" vertex="1">
          <mxGeometry x="-20" y="200" width="160" height="150" as="geometry" />
        </mxCell>
        <mxCell id="i1j0reB7DUbqS-x-DOS3-54" value="- refOpearation : String&lt;div&gt;- dOperation : String&lt;/div&gt;&lt;div&gt;- refEquipement : String&lt;/div&gt;&lt;div&gt;- dureeOperation : float&lt;/div&gt;" style="text;strokeColor=none;fillColor=none;align=left;verticalAlign=top;spacingLeft=4;spacingRight=4;overflow=hidden;rotatable=0;points=[[0,0.5],[1,0.5]];portConstraint=eastwest;whiteSpace=wrap;html=1;" parent="i1j0reB7DUbqS-x-DOS3-53" vertex="1">
          <mxGeometry y="26" width="160" height="74" as="geometry" />
        </mxCell>
        <mxCell id="i1j0reB7DUbqS-x-DOS3-55" value="" style="line;strokeWidth=1;fillColor=none;align=left;verticalAlign=middle;spacingTop=-1;spacingLeft=3;spacingRight=3;rotatable=0;labelPosition=right;points=[];portConstraint=eastwest;strokeColor=inherit;" parent="i1j0reB7DUbqS-x-DOS3-53" vertex="1">
          <mxGeometry y="100" width="160" height="8" as="geometry" />
        </mxCell>
        <mxCell id="i1j0reB7DUbqS-x-DOS3-56" value="+&amp;nbsp;getDureeOperation()&lt;div&gt;+&amp;nbsp;getRefEquipement()&lt;/div&gt;" style="text;strokeColor=none;fillColor=none;align=left;verticalAlign=top;spacingLeft=4;spacingRight=4;overflow=hidden;rotatable=0;points=[[0,0.5],[1,0.5]];portConstraint=eastwest;whiteSpace=wrap;html=1;" parent="i1j0reB7DUbqS-x-DOS3-53" vertex="1">
          <mxGeometry y="108" width="160" height="42" as="geometry" />
        </mxCell>
        <mxCell id="i1j0reB7DUbqS-x-DOS3-58" value="" style="endArrow=diamondThin;endFill=0;endSize=24;html=1;rounded=0;edgeStyle=orthogonalEdgeStyle;exitX=1;exitY=0.5;exitDx=0;exitDy=0;" parent="1" source="i1j0reB7DUbqS-x-DOS3-54" target="i1j0reB7DUbqS-x-DOS3-21" edge="1">
          <mxGeometry width="160" relative="1" as="geometry">
            <mxPoint x="230" y="280" as="sourcePoint" />
            <mxPoint x="390" y="280" as="targetPoint" />
          </mxGeometry>
        </mxCell>
        <mxCell id="i1j0reB7DUbqS-x-DOS3-59" value="permet" style="edgeLabel;html=1;align=center;verticalAlign=middle;resizable=0;points=[];" parent="i1j0reB7DUbqS-x-DOS3-58" vertex="1" connectable="0">
          <mxGeometry x="-0.067" y="-1" relative="1" as="geometry">
            <mxPoint as="offset" />
          </mxGeometry>
        </mxCell>
        <mxCell id="i1j0reB7DUbqS-x-DOS3-60" value="1..*" style="edgeLabel;html=1;align=center;verticalAlign=middle;resizable=0;points=[];" parent="i1j0reB7DUbqS-x-DOS3-58" vertex="1" connectable="0">
          <mxGeometry x="-0.7948" y="-2" relative="1" as="geometry">
            <mxPoint x="-5" y="-11" as="offset" />
          </mxGeometry>
        </mxCell>
        <mxCell id="i1j0reB7DUbqS-x-DOS3-61" value="1..*" style="edgeLabel;html=1;align=center;verticalAlign=middle;resizable=0;points=[];" parent="i1j0reB7DUbqS-x-DOS3-58" vertex="1" connectable="0">
          <mxGeometry x="0.7513" relative="1" as="geometry">
            <mxPoint x="7" y="-20" as="offset" />
          </mxGeometry>
        </mxCell>
        <mxCell id="i1j0reB7DUbqS-x-DOS3-62" value="Operateur" style="swimlane;fontStyle=1;align=center;verticalAlign=top;childLayout=stackLayout;horizontal=1;startSize=26;horizontalStack=0;resizeParent=1;resizeParentMax=0;resizeLast=0;collapsible=1;marginBottom=0;whiteSpace=wrap;html=1;" parent="1" vertex="1">
          <mxGeometry x="420" y="550" width="160" height="190" as="geometry" />
        </mxCell>
        <mxCell id="yPJRYRBYpKl1Pogp3GRS-4" style="edgeStyle=orthogonalEdgeStyle;rounded=0;orthogonalLoop=1;jettySize=auto;html=1;exitX=1;exitY=0.5;exitDx=0;exitDy=0;strokeColor=default;endArrow=none;startFill=0;" edge="1" parent="i1j0reB7DUbqS-x-DOS3-62" source="i1j0reB7DUbqS-x-DOS3-63">
          <mxGeometry relative="1" as="geometry">
            <mxPoint x="220" y="-10" as="targetPoint" />
          </mxGeometry>
        </mxCell>
        <mxCell id="i1j0reB7DUbqS-x-DOS3-63" value="- code : String&lt;div&gt;- prenom : String&lt;/div&gt;&lt;div&gt;- nom : String&lt;/div&gt;&lt;div&gt;- competences : liste de String&lt;/div&gt;&lt;div&gt;- estOcuppe : boolean&lt;/div&gt;" style="text;strokeColor=none;fillColor=none;align=left;verticalAlign=top;spacingLeft=4;spacingRight=4;overflow=hidden;rotatable=0;points=[[0,0.5],[1,0.5]];portConstraint=eastwest;whiteSpace=wrap;html=1;" parent="i1j0reB7DUbqS-x-DOS3-62" vertex="1">
          <mxGeometry y="26" width="160" height="94" as="geometry" />
        </mxCell>
        <mxCell id="i1j0reB7DUbqS-x-DOS3-64" value="" style="line;strokeWidth=1;fillColor=none;align=left;verticalAlign=middle;spacingTop=-1;spacingLeft=3;spacingRight=3;rotatable=0;labelPosition=right;points=[];portConstraint=eastwest;strokeColor=inherit;" parent="i1j0reB7DUbqS-x-DOS3-62" vertex="1">
          <mxGeometry y="120" width="160" height="8" as="geometry" />
        </mxCell>
        <mxCell id="i1j0reB7DUbqS-x-DOS3-65" value="+ afficherOperateur ()&lt;div&gt;+ changerStatut ()&lt;/div&gt;&lt;div&gt;+ estDisponible ()&lt;/div&gt;" style="text;strokeColor=none;fillColor=none;align=left;verticalAlign=top;spacingLeft=4;spacingRight=4;overflow=hidden;rotatable=0;points=[[0,0.5],[1,0.5]];portConstraint=eastwest;whiteSpace=wrap;html=1;" parent="i1j0reB7DUbqS-x-DOS3-62" vertex="1">
          <mxGeometry y="128" width="160" height="62" as="geometry" />
        </mxCell>
        <mxCell id="i1j0reB7DUbqS-x-DOS3-66" value="" style="endArrow=none;html=1;edgeStyle=orthogonalEdgeStyle;rounded=0;" parent="1" source="i1j0reB7DUbqS-x-DOS3-21" target="i1j0reB7DUbqS-x-DOS3-62" edge="1">
          <mxGeometry relative="1" as="geometry">
            <mxPoint x="320" y="480" as="sourcePoint" />
            <mxPoint x="480" y="480" as="targetPoint" />
          </mxGeometry>
        </mxCell>
        <mxCell id="i1j0reB7DUbqS-x-DOS3-67" value="1*" style="edgeLabel;resizable=0;html=1;align=left;verticalAlign=bottom;" parent="i1j0reB7DUbqS-x-DOS3-66" connectable="0" vertex="1">
          <mxGeometry x="-1" relative="1" as="geometry" />
        </mxCell>
        <mxCell id="i1j0reB7DUbqS-x-DOS3-68" value="1*" style="edgeLabel;resizable=0;html=1;align=right;verticalAlign=bottom;" parent="i1j0reB7DUbqS-x-DOS3-66" connectable="0" vertex="1">
          <mxGeometry x="1" relative="1" as="geometry" />
        </mxCell>
        <mxCell id="i1j0reB7DUbqS-x-DOS3-80" value="manipule" style="edgeLabel;html=1;align=center;verticalAlign=middle;resizable=0;points=[];" parent="i1j0reB7DUbqS-x-DOS3-66" vertex="1" connectable="0">
          <mxGeometry x="-0.1054" relative="1" as="geometry">
            <mxPoint as="offset" />
          </mxGeometry>
        </mxCell>
        <mxCell id="i1j0reB7DUbqS-x-DOS3-70" value="Gamme" style="swimlane;fontStyle=1;align=center;verticalAlign=top;childLayout=stackLayout;horizontal=1;startSize=26;horizontalStack=0;resizeParent=1;resizeParentMax=0;resizeLast=0;collapsible=1;marginBottom=0;whiteSpace=wrap;html=1;" parent="1" vertex="1">
          <mxGeometry y="450" width="200" height="200" as="geometry" />
        </mxCell>
        <mxCell id="i1j0reB7DUbqS-x-DOS3-71" value="&lt;div&gt;- refGamme : String&lt;/div&gt;- operations : List&amp;lt;operation&amp;gt;&lt;div&gt;- equipements : List&amp;lt;equipement&amp;gt;&amp;nbsp;&lt;br&gt;&lt;div&gt;&lt;br&gt;&lt;/div&gt;&lt;/div&gt;" style="text;strokeColor=none;fillColor=none;align=left;verticalAlign=top;spacingLeft=4;spacingRight=4;overflow=hidden;rotatable=0;points=[[0,0.5],[1,0.5]];portConstraint=eastwest;whiteSpace=wrap;html=1;" parent="i1j0reB7DUbqS-x-DOS3-70" vertex="1">
          <mxGeometry y="26" width="200" height="64" as="geometry" />
        </mxCell>
        <mxCell id="i1j0reB7DUbqS-x-DOS3-72" value="" style="line;strokeWidth=1;fillColor=none;align=left;verticalAlign=middle;spacingTop=-1;spacingLeft=3;spacingRight=3;rotatable=0;labelPosition=right;points=[];portConstraint=eastwest;strokeColor=inherit;" parent="i1j0reB7DUbqS-x-DOS3-70" vertex="1">
          <mxGeometry y="90" width="200" height="8" as="geometry" />
        </mxCell>
        <mxCell id="i1j0reB7DUbqS-x-DOS3-73" value="+ creerGamme ()&lt;div&gt;+ modifierGamme ()&lt;/div&gt;&lt;div&gt;+ supprimerGamme ()&lt;/div&gt;&lt;div&gt;+ afficheGamme ()&lt;/div&gt;&lt;div&gt;+ coutGamme ()&lt;/div&gt;&lt;div&gt;+ dureeGamme ()&lt;/div&gt;" style="text;strokeColor=none;fillColor=none;align=left;verticalAlign=top;spacingLeft=4;spacingRight=4;overflow=hidden;rotatable=0;points=[[0,0.5],[1,0.5]];portConstraint=eastwest;whiteSpace=wrap;html=1;" parent="i1j0reB7DUbqS-x-DOS3-70" vertex="1">
          <mxGeometry y="98" width="200" height="102" as="geometry" />
        </mxCell>
        <mxCell id="yPJRYRBYpKl1Pogp3GRS-1" value="" style="edgeStyle=segmentEdgeStyle;endArrow=classic;html=1;curved=0;rounded=0;endSize=8;startSize=8;sourcePerimeterSpacing=0;targetPerimeterSpacing=0;exitX=0.25;exitY=1;exitDx=0;exitDy=0;" edge="1" parent="1" source="i1j0reB7DUbqS-x-DOS3-22">
          <mxGeometry width="100" relative="1" as="geometry">
            <mxPoint x="590" y="480" as="sourcePoint" />
            <mxPoint x="690" y="540" as="targetPoint" />
            <Array as="points">
              <mxPoint x="640" y="540" />
              <mxPoint x="690" y="540" />
            </Array>
          </mxGeometry>
        </mxCell>
      </root>
    </mxGraphModel>
  </diagram>
</mxfile>
